<svg width="140" height="34" viewBox="0 0 140 34" fill="none" xmlns="http://www.w3.org/2000/svg">
<g filter="url(#filter0_ii_396_424)">
<g clip-path="url(#clip0_396_424)">
<path d="M14.2319 1.59656L7.03225 14.444L11.7192 17.0706L19.8385 12.2417L30.3068 18.1081L33.5067 12.3981L14.2319 1.59656Z" fill="#DB4437"/>
<path d="M14.2319 1.59656L7.03225 14.444L11.7192 17.0706L19.8385 12.2417L30.3068 18.1081L33.5067 12.3981L14.2319 1.59656Z" fill="url(#paint0_linear_396_424)"/>
<path d="M11.8564 17.085L11.6726 6.30563L11.537 6.38593L11.7208 17.0871L11.8564 17.085Z" fill="black" fill-opacity="0.15"/>
<path d="M0.837243 21.6019L10.8024 27.1863L18.0193 25.1531L19.9606 21.6891L11.7168 17.0693L11.4714 2.62573L0.837243 21.6019Z" fill="#0F9D58"/>
<path d="M0.837243 21.6019L10.8024 27.1863L18.0193 25.1531L19.9606 21.6891L11.7168 17.0693L11.4714 2.62573L0.837243 21.6019Z" fill="url(#paint1_linear_396_424)"/>
<path d="M19.7728 21.787L19.706 21.6746L10.6616 27.1027L10.7984 27.1794L19.7732 21.7919L19.7728 21.787Z" fill="#263238" fill-opacity="0.15"/>
<path d="M19.8385 12.2417L19.9606 21.6891L10.8024 27.1863L21.7739 33.3347L30.3068 18.1081L19.8385 12.2417Z" fill="#FFCD40"/>
<path d="M19.8385 12.2417L19.9606 21.6891L10.8024 27.1863L21.7739 33.3347L30.3068 18.1081L19.8385 12.2417Z" fill="url(#paint2_linear_396_424)"/>
<path d="M19.8385 12.2417L19.9606 21.6891L10.8024 27.1863L21.7739 33.3347L30.3068 18.1081L19.8385 12.2417Z" fill="white"/>
<path d="M19.8385 12.2417L19.9606 21.6891L10.8024 27.1863L21.7739 33.3347L30.3068 18.1081L19.8385 12.2417Z" fill="url(#paint3_linear_396_424)"/>
<path d="M14.2319 1.59656L7.03225 14.444L11.7192 17.0706L19.8385 12.2417L30.3068 18.1081L33.5067 12.3981L14.2319 1.59656Z" fill="white"/>
<path d="M14.2319 1.59656L7.03225 14.444L11.7192 17.0706L19.8385 12.2417L30.3068 18.1081L33.5067 12.3981L14.2319 1.59656Z" fill="url(#paint4_linear_396_424)"/>
<path d="M19.8385 12.2417L18.4419 14.7339L29.1648 17.4681L19.8385 12.2417Z" fill="url(#paint5_radial_396_424)"/>
<path d="M0.837243 21.6019L10.8024 27.1863L15.7277 24.3191L19.9606 21.6891L11.7168 17.0693L11.4714 2.62573L0.837243 21.6019Z" fill="white"/>
<path d="M0.837243 21.6019L10.8024 27.1863L16.1395 24.0027L19.9606 21.6891L11.7168 17.0693L11.4714 2.62573L0.837243 21.6019Z" fill="url(#paint6_linear_396_424)"/>
<path d="M11.5354 6.40845L14.5299 17.0341L11.718 17.0699L11.5354 6.40845Z" fill="url(#paint7_radial_396_424)"/>
<path d="M10.8162 27.1784L18.5227 19.2732L19.9606 21.6891L10.8162 27.1784Z" fill="url(#paint8_radial_396_424)"/>
<path d="M14.5054 21.7583C17.1334 23.231 20.4576 22.2945 21.9303 19.6665C23.403 17.0386 22.4665 13.7144 19.8385 12.2417C17.2106 10.769 13.8863 11.7055 12.4137 14.3334C10.941 16.9614 11.8775 20.2856 14.5054 21.7583Z" fill="#131013"/>
<path d="M15.0387 20.8067C17.1411 21.9848 19.8005 21.2356 20.9786 19.1333C22.1568 17.0309 21.4075 14.3715 19.3052 13.1934C17.2028 12.0152 14.5435 12.7644 13.3653 14.8668C12.1871 16.9691 12.9364 19.6285 15.0387 20.8067Z" fill="white"/>
<path d="M19.9052 12.1227C17.2762 10.6495 13.9536 11.5855 12.4803 14.2145L12.4136 14.3335C13.8869 11.7045 17.2095 10.7684 19.8385 12.2417L30.3068 18.1081L30.3735 17.9891L19.9052 12.1227Z" fill="black" fill-opacity="0.2"/>
<path d="M19.9546 21.6857C18.3355 22.6448 16.266 22.7449 14.5054 21.7583C12.7448 20.7717 11.7476 18.9529 11.7227 17.0726L11.718 17.0699L11.4714 2.62573L11.4048 2.74469L11.6561 17.1916C11.6833 19.0732 12.6782 20.8907 14.4387 21.8773C16.1993 22.8639 18.2681 22.7649 19.888 21.8047L19.8939 21.808L19.9606 21.6891L19.9534 21.6851L19.9546 21.6857Z" fill="white" fill-opacity="0.1"/>
<path opacity="0.1" d="M19.9574 12.3084C19.9372 12.297 19.9168 12.2887 19.8959 12.2786C22.4784 13.768 23.3915 17.059 21.9302 19.6666C20.469 22.2741 17.1853 23.2132 14.5669 21.7881C14.5871 21.7994 14.6041 21.8136 14.6243 21.825C17.2533 23.2983 20.5759 22.3622 22.0492 19.7332C23.5225 17.1043 22.5864 13.7816 19.9574 12.3084Z" fill="black"/>
<path d="M19.9155 21.867C20.712 21.3942 21.3996 20.7166 21.8849 19.8506C22.1587 19.3628 22.3555 18.8356 22.4685 18.2878C22.3535 18.7579 22.1802 19.2205 21.9316 19.6642C21.4463 20.5302 20.7586 21.2078 19.9622 21.6806L19.9619 21.6867L10.8037 27.1839L10.9417 27.2612L19.9155 21.867Z" fill="white" fill-opacity="0.2"/>
<path d="M22.9717 6.65064C28.7328 9.87917 30.7981 17.1532 27.6069 22.9259C27.6183 22.9056 27.6301 22.8873 27.6414 22.8671C30.8813 17.0857 28.8209 9.77221 23.0396 6.53235C17.2582 3.2925 9.94352 5.35223 6.70366 11.1336C6.69233 11.1538 6.68285 11.1735 6.67152 11.1937C9.92816 5.45773 17.2106 3.42212 22.9717 6.65064Z" fill="white" fill-opacity="0.2"/>
<path d="M11.3723 27.3493C17.1334 30.5778 24.4158 28.5422 27.6736 22.8069C27.6623 22.8271 27.6528 22.8468 27.6415 22.867C24.4016 28.6484 17.0882 30.7088 11.3068 27.4689C5.52545 24.2291 3.46387 16.9149 6.70373 11.1336C6.71506 11.1134 6.72692 11.095 6.73825 11.0748C3.54584 16.8468 5.61115 24.1208 11.3735 27.35L11.3723 27.3493Z" fill="black" fill-opacity="0.15"/>
</g>
</g>
<path d="M39.7178 16.6C39.7178 14.952 40.0858 13.48 40.8218 12.184C41.5738 10.872 42.5898 9.856 43.8698 9.136C45.1658 8.4 46.6138 8.032 48.2138 8.032C50.0858 8.032 51.7258 8.512 53.1338 9.472C54.5418 10.432 55.5258 11.76 56.0858 13.456H52.2218C51.8378 12.656 51.2938 12.056 50.5898 11.656C49.9018 11.256 49.1018 11.056 48.1898 11.056C47.2138 11.056 46.3418 11.288 45.5738 11.752C44.8218 12.2 44.2298 12.84 43.7978 13.672C43.3818 14.504 43.1738 15.48 43.1738 16.6C43.1738 17.704 43.3818 18.68 43.7978 19.528C44.2298 20.36 44.8218 21.008 45.5738 21.472C46.3418 21.92 47.2138 22.144 48.1898 22.144C49.1018 22.144 49.9018 21.944 50.5898 21.544C51.2938 21.128 51.8378 20.52 52.2218 19.72H56.0858C55.5258 21.432 54.5418 22.768 53.1338 23.728C51.7418 24.672 50.1018 25.144 48.2138 25.144C46.6138 25.144 45.1658 24.784 43.8698 24.064C42.5898 23.328 41.5738 22.312 40.8218 21.016C40.0858 19.72 39.7178 18.248 39.7178 16.6ZM66.4437 11.512C67.4517 11.512 68.3477 11.736 69.1317 12.184C69.9157 12.616 70.5237 13.264 70.9557 14.128C71.4037 14.976 71.6277 16 71.6277 17.2V25H68.2677V17.656C68.2677 16.6 68.0037 15.792 67.4757 15.232C66.9477 14.656 66.2277 14.368 65.3157 14.368C64.3877 14.368 63.6517 14.656 63.1077 15.232C62.5797 15.792 62.3157 16.6 62.3157 17.656V25H58.9557V7.24H62.3157V13.36C62.7477 12.784 63.3237 12.336 64.0437 12.016C64.7637 11.68 65.5637 11.512 66.4437 11.512ZM78.1829 13.768C78.6149 13.064 79.1749 12.512 79.8629 12.112C80.5669 11.712 81.3669 11.512 82.2629 11.512V15.04H81.3749C80.3189 15.04 79.5189 15.288 78.9749 15.784C78.4469 16.28 78.1829 17.144 78.1829 18.376V25H74.8229V11.704H78.1829V13.768ZM90.43 25.216C89.15 25.216 87.998 24.936 86.974 24.376C85.95 23.8 85.142 22.992 84.55 21.952C83.974 20.912 83.686 19.712 83.686 18.352C83.686 16.992 83.982 15.792 84.574 14.752C85.182 13.712 86.006 12.912 87.046 12.352C88.086 11.776 89.246 11.488 90.526 11.488C91.806 11.488 92.966 11.776 94.006 12.352C95.046 12.912 95.862 13.712 96.454 14.752C97.062 15.792 97.366 16.992 97.366 18.352C97.366 19.712 97.054 20.912 96.43 21.952C95.822 22.992 94.99 23.8 93.934 24.376C92.894 24.936 91.726 25.216 90.43 25.216ZM90.43 22.288C91.038 22.288 91.606 22.144 92.134 21.856C92.678 21.552 93.11 21.104 93.43 20.512C93.75 19.92 93.91 19.2 93.91 18.352C93.91 17.088 93.574 16.12 92.902 15.448C92.246 14.76 91.438 14.416 90.478 14.416C89.518 14.416 88.71 14.76 88.054 15.448C87.414 16.12 87.094 17.088 87.094 18.352C87.094 19.616 87.406 20.592 88.03 21.28C88.67 21.952 89.47 22.288 90.43 22.288ZM116.343 11.512C117.975 11.512 119.287 12.016 120.279 13.024C121.287 14.016 121.791 15.408 121.791 17.2V25H118.431V17.656C118.431 16.616 118.167 15.824 117.639 15.28C117.111 14.72 116.391 14.44 115.479 14.44C114.567 14.44 113.839 14.72 113.295 15.28C112.767 15.824 112.503 16.616 112.503 17.656V25H109.143V17.656C109.143 16.616 108.879 15.824 108.351 15.28C107.823 14.72 107.103 14.44 106.191 14.44C105.263 14.44 104.527 14.72 103.983 15.28C103.455 15.824 103.191 16.616 103.191 17.656V25H99.8307V11.704H103.191V13.312C103.623 12.752 104.175 12.312 104.847 11.992C105.535 11.672 106.287 11.512 107.103 11.512C108.143 11.512 109.071 11.736 109.887 12.184C110.703 12.616 111.335 13.24 111.783 14.056C112.215 13.288 112.839 12.672 113.655 12.208C114.487 11.744 115.383 11.512 116.343 11.512ZM137.339 18.064C137.339 18.544 137.307 18.976 137.243 19.36H127.523C127.603 20.32 127.939 21.072 128.531 21.616C129.123 22.16 129.851 22.432 130.715 22.432C131.963 22.432 132.851 21.896 133.379 20.824H137.003C136.619 22.104 135.883 23.16 134.795 23.992C133.707 24.808 132.371 25.216 130.787 25.216C129.507 25.216 128.355 24.936 127.331 24.376C126.323 23.8 125.531 22.992 124.955 21.952C124.395 20.912 124.115 19.712 124.115 18.352C124.115 16.976 124.395 15.768 124.955 14.728C125.515 13.688 126.299 12.888 127.307 12.328C128.315 11.768 129.475 11.488 130.787 11.488C132.051 11.488 133.179 11.76 134.171 12.304C135.179 12.848 135.955 13.624 136.499 14.632C137.059 15.624 137.339 16.768 137.339 18.064ZM133.859 17.104C133.843 16.24 133.531 15.552 132.923 15.04C132.315 14.512 131.571 14.248 130.691 14.248C129.859 14.248 129.155 14.504 128.579 15.016C128.019 15.512 127.675 16.208 127.547 17.104H133.859Z" fill="white"/>
<defs>
<filter id="filter0_ii_396_424" x="0.83728" y="-0.615604" width="32.6694" height="35.2312" filterUnits="userSpaceOnUse" color-interpolation-filters="sRGB">
<feFlood flood-opacity="0" result="BackgroundImageFix"/>
<feBlend mode="normal" in="SourceGraphic" in2="BackgroundImageFix" result="shape"/>
<feColorMatrix in="SourceAlpha" type="matrix" values="0 0 0 0 0 0 0 0 0 0 0 0 0 0 0 0 0 0 127 0" result="hardAlpha"/>
<feOffset dy="1.28089"/>
<feGaussianBlur stdDeviation="1.28089"/>
<feComposite in2="hardAlpha" operator="arithmetic" k2="-1" k3="1"/>
<feColorMatrix type="matrix" values="0 0 0 0 1 0 0 0 0 1 0 0 0 0 1 0 0 0 0.25 0"/>
<feBlend mode="normal" in2="shape" result="effect1_innerShadow_396_424"/>
<feColorMatrix in="SourceAlpha" type="matrix" values="0 0 0 0 0 0 0 0 0 0 0 0 0 0 0 0 0 0 127 0" result="hardAlpha"/>
<feOffset dy="-1.28089"/>
<feGaussianBlur stdDeviation="1.28089"/>
<feComposite in2="hardAlpha" operator="arithmetic" k2="-1" k3="1"/>
<feColorMatrix type="matrix" values="0 0 0 0 0 0 0 0 0 0 0 0 0 0 0 0 0 0 0.12 0"/>
<feBlend mode="normal" in2="effect1_innerShadow_396_424" result="effect2_innerShadow_396_424"/>
</filter>
<linearGradient id="paint0_linear_396_424" x1="10.6409" y1="10.0604" x2="18.9307" y2="9.91184" gradientUnits="userSpaceOnUse">
<stop stop-color="#A52714" stop-opacity="0.6"/>
<stop offset="0.66" stop-color="#A52714" stop-opacity="0"/>
</linearGradient>
<linearGradient id="paint1_linear_396_424" x1="14.378" y1="26.1419" x2="9.71547" y2="18.1831" gradientUnits="userSpaceOnUse">
<stop stop-color="#055524" stop-opacity="0.4"/>
<stop offset="0.33" stop-color="#055524" stop-opacity="0"/>
</linearGradient>
<linearGradient id="paint2_linear_396_424" x1="23.3328" y1="13.2308" x2="20.7951" y2="21.8597" gradientUnits="userSpaceOnUse">
<stop stop-color="#EA6100" stop-opacity="0.3"/>
<stop offset="0.66" stop-color="#EA6100" stop-opacity="0"/>
</linearGradient>
<linearGradient id="paint3_linear_396_424" x1="23.3328" y1="13.2308" x2="20.7951" y2="21.8597" gradientUnits="userSpaceOnUse">
<stop stop-color="#EA6100" stop-opacity="0.3"/>
<stop offset="0.66" stop-color="#EA6100" stop-opacity="0"/>
</linearGradient>
<linearGradient id="paint4_linear_396_424" x1="10.6409" y1="10.0604" x2="18.9307" y2="9.91184" gradientUnits="userSpaceOnUse">
<stop stop-color="#A52714" stop-opacity="0.6"/>
<stop offset="0.66" stop-color="#A52714" stop-opacity="0"/>
</linearGradient>
<radialGradient id="paint5_radial_396_424" cx="0" cy="0" r="1" gradientUnits="userSpaceOnUse" gradientTransform="translate(19.3898 11.9824) rotate(29.2662) scale(11.4655 11.4654)">
<stop stop-color="#3E2723" stop-opacity="0.2"/>
<stop offset="1" stop-color="#3E2723" stop-opacity="0"/>
</radialGradient>
<linearGradient id="paint6_linear_396_424" x1="14.378" y1="26.1419" x2="9.71547" y2="18.1831" gradientUnits="userSpaceOnUse">
<stop stop-color="#055524" stop-opacity="0.4"/>
<stop offset="0.33" stop-color="#055524" stop-opacity="0"/>
</linearGradient>
<radialGradient id="paint7_radial_396_424" cx="0" cy="0" r="1" gradientUnits="userSpaceOnUse" gradientTransform="translate(11.5224 6.41211) rotate(29.2662) scale(10.6418 10.6418)">
<stop stop-color="#3E2723" stop-opacity="0.2"/>
<stop offset="1" stop-color="#3E2723" stop-opacity="0"/>
</radialGradient>
<radialGradient id="paint8_radial_396_424" cx="0" cy="0" r="1" gradientUnits="userSpaceOnUse" gradientTransform="translate(17.1389 17.0033) rotate(29.2662) scale(11.9823 11.9823)">
<stop stop-color="#263238" stop-opacity="0.2"/>
<stop offset="1" stop-color="#263238" stop-opacity="0"/>
</radialGradient>
<clipPath id="clip0_396_424">
<rect x="12.5701" y="0.665283" width="24" height="24" rx="12" transform="rotate(29.2662 12.5701 0.665283)" fill="white"/>
</clipPath>
</defs>
</svg>
