<svg width="438" height="501" viewBox="0 0 438 501" fill="none" xmlns="http://www.w3.org/2000/svg">
<g clip-path="url(#clip0_471_198)">
<path d="M280.088 501H89.5773C68.9233 501 52.1199 481.821 52.1199 458.246V42.7531C52.1199 19.1791 68.9233 0 89.5773 0H280.088C300.742 0 317.546 19.1791 317.546 42.7531V458.246C317.546 481.821 300.742 501 280.088 501Z" fill="#3A3939"/>
<path d="M317.546 152.832C316.672 152.832 315.961 153.643 315.961 154.641V212.518C315.961 213.516 316.672 214.327 317.546 214.327C318.42 214.327 319.13 213.516 319.13 212.518V154.641C319.13 153.643 318.42 152.832 317.546 152.832Z" fill="#F2F2F2"/>
<path d="M314.295 42.6873V458.173C314.295 478.693 300.303 495.477 282.61 496.779H282.602C282.341 496.797 282.079 496.815 281.81 496.824C281.342 496.852 280.875 496.861 280.4 496.861C280.4 496.861 278.656 496.716 275.471 496.445C272.255 496.173 267.572 495.766 261.733 495.233C259.982 495.079 258.135 494.907 256.186 494.726C252.304 494.365 248.041 493.967 243.47 493.515C241.647 493.343 239.762 493.153 237.836 492.963C227.996 491.995 216.975 490.865 205.351 489.581C203.387 489.373 201.406 489.156 199.409 488.93C198.886 488.866 198.355 488.812 197.824 488.749C189.537 487.817 181.019 486.814 172.47 485.746C171.94 485.683 171.409 485.62 170.886 485.556C156.157 483.703 141.372 481.686 127.538 479.516C116.897 477.852 106.819 476.097 97.7709 474.279C94.8234 473.683 91.9869 473.086 89.2772 472.48C88.7464 472.362 88.2155 472.245 87.6926 472.118C68.5424 467.741 56 463.021 56 458.173V42.6873C56 21.318 71.1728 4 89.8953 4H110.131C113.364 4 115.962 6.87576 116.24 10.5564C116.263 10.8006 116.287 11.0447 116.327 11.2889C116.913 14.9877 119.884 17.565 123.18 17.565H247.114C250.41 17.565 253.382 14.9876 253.968 11.2889C254.007 11.0447 254.031 10.8006 254.055 10.5564C254.332 6.87576 256.931 4 260.164 4H280.4C299.122 4 314.295 21.318 314.295 42.6873Z" fill="#AA82FF"/>
<path d="M51.3276 109.424C50.4536 109.424 49.7429 110.235 49.7429 111.233V125.702C49.7429 126.7 50.4536 127.511 51.3276 127.511C52.2015 127.511 52.9122 126.7 52.9122 125.702V111.233C52.9122 110.235 52.2015 109.424 51.3276 109.424Z" fill="#F2F2F2"/>
<path d="M51.3276 152.832C50.4536 152.832 49.7429 153.643 49.7429 154.641V182.675C49.7429 183.673 50.4536 184.484 51.3276 184.484C52.2015 184.484 52.9122 183.673 52.9122 182.675V154.641C52.9122 153.643 52.2015 152.832 51.3276 152.832Z" fill="#F2F2F2"/>
<path d="M51.3276 192.623C50.4536 192.623 49.7429 193.434 49.7429 194.431V222.466C49.7429 223.463 50.4536 224.274 51.3276 224.274C52.2015 224.274 52.9122 223.463 52.9122 222.466V194.431C52.9122 193.434 52.2015 192.623 51.3276 192.623Z" fill="#F2F2F2"/>
<path d="M107.978 10.3999H80.2472C79.3721 10.3999 78.6626 11.2097 78.6626 12.2086V13.1129C78.6626 14.1118 79.3721 14.9216 80.2472 14.9216H107.978C108.853 14.9216 109.563 14.1118 109.563 13.1129V12.2086C109.563 11.2097 108.853 10.3999 107.978 10.3999Z" fill="white"/>
<path d="M264 14C265.657 14 267 12.6569 267 11C267 9.34315 265.657 8 264 8C262.343 8 261 9.34315 261 11C261 12.6569 262.343 14 264 14Z" fill="white"/>
<path d="M273 14C274.657 14 276 12.6569 276 11C276 9.34315 274.657 8 273 8C271.343 8 270 9.34315 270 11C270 12.6569 271.343 14 273 14Z" fill="white"/>
<path d="M282 14C283.657 14 285 12.6569 285 11C285 9.34315 283.657 8 282 8C280.343 8 279 9.34315 279 11C279 12.6569 280.343 14 282 14Z" fill="white"/>
<path d="M96.3145 141.934C105.703 141.934 113.314 134.323 113.314 124.934C113.314 115.545 105.703 107.934 96.3145 107.934C86.9256 107.934 79.3145 115.545 79.3145 124.934C79.3145 134.323 86.9256 141.934 96.3145 141.934Z" fill="white"/>
<path d="M217.319 119.304H134.546C131.706 119.304 129.396 116.667 129.396 113.426C129.396 110.185 131.706 107.548 134.546 107.548H217.319C220.159 107.548 222.469 110.185 222.469 113.426C222.469 116.667 220.159 119.304 217.319 119.304Z" fill="white"/>
<path d="M84.2526 318.214C82.9314 318.214 81.8567 319.441 81.8567 320.948C81.8567 322.457 82.9314 323.683 84.2526 323.683H170.95C172.271 323.683 173.346 322.457 173.346 320.948C173.346 319.441 172.271 318.214 170.95 318.214H84.2526Z" fill="white"/>
<path d="M281.916 139.2H134.546C131.706 139.2 129.396 136.562 129.396 133.321C129.396 130.08 131.706 127.443 134.546 127.443H281.916C284.756 127.443 287.066 130.08 287.066 133.321C287.066 136.562 284.756 139.2 281.916 139.2Z" fill="white"/>
<path d="M114.037 55.9349H82.5421C80.3579 55.9349 78.5806 53.9064 78.5806 51.4133C78.5806 48.9202 80.3579 46.8916 82.5421 46.8916H114.037C116.221 46.8916 117.998 48.9202 117.998 51.4133C117.998 53.9064 116.221 55.9349 114.037 55.9349Z" fill="white"/>
<path d="M281.52 47.4099H250.026C248.056 47.4099 246.46 49.2319 246.46 51.4794C246.46 53.7269 248.056 55.5489 250.026 55.5489H281.52C283.489 55.5489 285.086 53.7269 285.086 51.4794C285.086 49.2319 283.489 47.4099 281.52 47.4099Z" fill="#7304FF"/>
<path d="M236.358 56.0011H204.864C202.679 56.0011 200.902 53.9725 200.902 51.4794C200.902 48.9863 202.679 46.9578 204.864 46.9578H236.358C238.542 46.9578 240.32 48.9863 240.32 51.4794C240.32 53.9725 238.542 56.0011 236.358 56.0011Z" fill="white"/>
<path d="M118.278 304.934H88.1701C82.709 304.934 78.2661 299.863 78.2661 293.63V282.402C78.2661 276.169 82.709 271.098 88.1701 271.098H118.278C123.739 271.098 128.182 276.169 128.182 282.402V293.63C128.182 299.863 123.739 304.934 118.278 304.934Z" fill="white"/>
<path d="M277.162 240.219H88.1701C82.709 240.219 78.2661 235.148 78.2661 228.915V179.442C78.2661 173.209 82.709 168.138 88.1701 168.138H277.162C282.624 168.138 287.066 173.209 287.066 179.442V228.915C287.066 235.148 282.624 240.219 277.162 240.219Z" fill="#7304FF"/>
<path d="M275.949 304.934H245.841C240.38 304.934 235.937 299.863 235.937 293.63V282.402C235.937 276.169 240.38 271.098 245.841 271.098H275.949C281.41 271.098 285.853 276.169 285.853 282.402V293.63C285.853 299.863 281.41 304.934 275.949 304.934Z" fill="#F2F2F2"/>
<path d="M196.346 304.934H166.238C160.777 304.934 156.334 299.863 156.334 293.63V282.402C156.334 276.169 160.777 271.098 166.238 271.098H196.346C201.807 271.098 206.25 276.169 206.25 282.402V293.63C206.25 299.863 201.807 304.934 196.346 304.934Z" fill="white"/>
<path d="M128.999 354.883H105.23V380.204H128.999V354.883Z" fill="white"/>
<path d="M128.999 391.056H115.53V416.377H128.999V391.056Z" fill="white"/>
<path d="M159.9 391.056H136.13V416.377H159.9V391.056Z" fill="white"/>
<path d="M159.9 427.229H136.13V452.55H159.9V427.229Z" fill="white"/>
<path d="M190.8 391.056H167.031V416.377H190.8V391.056Z" fill="white"/>
<path d="M159.9 354.883H136.13V380.204H159.9V354.883Z" fill="white"/>
<path d="M190.8 354.883H167.031V380.204H190.8V354.883Z" fill="white"/>
<path d="M252.601 354.883H228.831V380.204H252.601V354.883Z" fill="white"/>
<path d="M190.8 427.229H167.031V452.55H190.8V427.229Z" fill="white"/>
<path d="M221.7 354.883H197.931V380.204H221.7V354.883Z" fill="white"/>
<path d="M264.882 391.056H249.431V416.377H264.882C267.069 416.377 268.843 414.353 268.843 411.856V395.578C268.843 393.08 267.069 391.056 264.882 391.056Z" fill="white"/>
<path d="M128.999 427.229H124.246C122.058 427.229 120.284 429.254 120.284 431.751V448.029C120.284 450.526 122.058 452.55 124.246 452.55H128.999V427.229Z" fill="white"/>
<path d="M221.7 427.229H197.931V452.55H221.7V427.229Z" fill="white"/>
<path d="M282.709 354.883H259.731V380.204H282.709C284.896 380.204 286.67 378.179 286.67 375.682V359.404C286.67 356.907 284.896 354.883 282.709 354.883Z" fill="white"/>
<path d="M242.3 427.611C241.815 427.368 241.28 427.229 240.716 427.229H228.831V452.55H240.716C241.28 452.55 241.815 452.411 242.3 452.169V427.611Z" fill="white"/>
<path d="M221.7 391.056H197.931V416.377H221.7V391.056Z" fill="white"/>
<path d="M242.3 391.056H228.831V416.377H242.3V391.056Z" fill="white"/>
<path d="M108.399 391.056H100.08C97.8921 391.056 96.1184 393.08 96.1184 395.578V411.856C96.1184 414.353 97.8921 416.377 100.08 416.377H108.399V391.056Z" fill="white"/>
<path d="M98.0991 354.883H82.2528C80.0649 354.883 78.2913 356.907 78.2913 359.404V375.682C78.2913 378.179 80.0649 380.204 82.2528 380.204H98.0991V354.883Z" fill="white"/>
<path d="M230.516 494.301L222.119 494.3L218.125 463.224L230.518 463.224L230.516 494.301Z" fill="#FFB6B6"/>
<path d="M230.812 502.706L204.99 502.705V502.392C204.991 497.066 209.49 492.749 215.041 492.748H215.041L219.758 489.315L228.558 492.749L230.812 492.749L230.811 502.706H230.812Z" fill="#2F2E41"/>
<path d="M282.792 494.301L274.395 494.3L270.4 463.224L282.793 463.224L282.792 494.301Z" fill="#FFB6B6"/>
<path d="M283.087 502.706L257.266 502.705V502.392C257.266 497.066 261.766 492.749 267.316 492.748H267.317L272.033 489.315L280.834 492.749L283.088 492.749L283.087 502.706Z" fill="#2F2E41"/>
<path d="M299.752 256.32H227.636L218.882 282.269L216.769 392.619L217.14 478.725L233.563 478.785L248.027 386.228C248.027 386.228 246.418 377.123 249.252 378.389C252.086 379.654 247.296 368.484 250.633 369.547C253.971 370.611 257.218 327.412 257.218 327.412L265.176 392.619L270.287 478.725H285.098L297.52 345.916C297.52 345.916 293.619 337.877 298.771 332.54C303.923 327.203 303.395 283.105 303.395 283.105L299.752 256.32Z" fill="#2F2E41"/>
<path d="M301.652 254.682C301.652 254.682 308.566 264.131 302.534 278.934C292.509 303.535 225.999 282.843 221.926 267.517C215.669 265.445 226.1 262.413 223.029 257.386C222.842 257.08 224.754 263.9 223.239 256.353C220.807 244.241 224.981 207.03 224.981 207.03L226.359 184.947C227.695 163.557 236.758 143.282 251.99 127.612L251.99 127.612H286.621L301.652 151.019L303.209 209.688L301.652 254.682H301.652Z" fill="#3F3D56"/>
<path d="M196.092 256.914L206.829 241.294L216.194 246.482L204.281 262.573C204.318 263.194 204.272 263.83 204.128 264.467C203.347 267.931 200.035 270.075 196.732 269.256C193.429 268.436 191.385 264.964 192.166 261.5C192.665 259.29 194.194 257.623 196.092 256.914H196.092Z" fill="#FFB6B6"/>
<path d="M246.917 132.628H246.917C234.888 132.628 224.991 141.713 224.457 153.243L222.16 202.917C222.16 202.917 222.143 205.676 221.079 204.859C220.015 204.042 219.925 206.931 219.925 206.931C219.925 206.931 219.877 211.35 218.874 208.82C217.87 206.291 217.734 210.868 217.734 210.868L203.124 234.988C205.087 238.883 203.562 243.699 203.076 247.622L213.581 256.899C213.581 256.899 213.489 254.114 215.753 254.161C229.634 254.449 243.846 218.472 243.607 205.166C243.335 189.983 246.917 132.628 246.917 132.628L246.917 132.628Z" fill="#3F3D56"/>
<path d="M251.852 63.5167L262.59 79.1367L271.954 73.9486L260.041 57.8578C260.079 57.2368 260.032 56.5999 259.889 55.963C259.107 52.4989 255.796 50.3551 252.493 51.1746C249.19 51.9941 247.146 55.4667 247.927 58.9307C248.425 61.1399 249.954 62.8076 251.852 63.5167H251.852Z" fill="#FFB6B6"/>
<path d="M302.678 187.803H302.678C290.649 187.803 280.751 178.718 280.218 167.187L277.92 117.513C277.92 117.513 277.903 114.755 276.84 115.572C275.776 116.389 275.686 113.499 275.686 113.499C275.686 113.499 275.638 109.08 274.634 111.61C273.631 114.14 273.494 109.562 273.494 109.562L254.39 75.2417L255.475 70.7648L265.93 63.241C265.93 63.241 270.155 64.5314 271.514 66.2696C278.37 75.0389 299.114 102.593 299.368 115.264C299.672 130.447 302.678 187.803 302.678 187.803Z" fill="#3F3D56"/>
<path d="M260.279 122.591C260.791 122.705 261.304 122.803 261.816 122.879C263.408 123.128 264.999 123.204 266.551 123.113C271.263 122.879 275.708 121.208 279.301 118.456C283.099 115.552 285.935 111.447 287.125 106.563C289.922 95.0331 282.445 83.4957 270.428 80.8117C258.585 78.158 246.742 85.0835 243.716 96.3184C243.669 96.4923 243.622 96.6586 243.583 96.8325C240.785 108.37 248.255 119.9 260.279 122.591V122.591Z" fill="#FFB6B6"/>
<path d="M288.287 108.735C285.168 116.635 277.274 122.897 268.474 123.273C266.976 123.332 265.416 123.223 264.092 122.537C262.759 121.86 261.731 120.498 261.844 119.06C262.079 116.226 266.096 115.139 267.228 112.506C267.978 110.767 267.115 108.535 265.355 107.69C263.595 106.854 261.217 107.523 260.215 109.153C262.044 106.478 260.973 102.708 258.664 100.409C256.364 98.1016 253.131 96.9228 250.012 95.8026L249.943 94.6656C247.738 95.4766 245.334 93.8464 244.375 91.7313C245.491 90.4355 246.196 88.8639 246.876 87.3173C245.961 87.9359 244.942 88.3874 243.861 88.6633C243.922 86.8241 241.047 85.9464 241.535 84.1406C242.215 81.6326 246.144 77.8791 244.855 75.6052C247.259 76.2573 248.827 78.9491 248.148 81.2564C249.01 78.9993 249.873 76.7421 250.736 74.4766C251.406 76.0483 252.077 77.6199 252.757 79.1832C256.042 77.2186 259.439 75.2206 263.256 74.5936C267.072 73.9583 271.463 75.0283 273.597 78.1382C275.819 76.8424 278.799 77.2437 280.994 78.5896C283.19 79.9356 284.723 82.0673 285.952 84.2743C290.117 91.7146 291.406 100.844 288.287 108.735V108.735Z" fill="#2F2E41"/>
</g>
<defs>
<clipPath id="clip0_471_198">
<rect width="438" height="501" fill="white"/>
</clipPath>
</defs>
</svg>
