<svg width="102" height="34" viewBox="0 0 102 34" fill="none" xmlns="http://www.w3.org/2000/svg">
<g clip-path="url(#clip0_396_459)">
<path fill-rule="evenodd" clip-rule="evenodd" d="M10.2432 6.01394C7.76264 5.84199 5.78726 7.28295 4.40659 9.09166C3.01784 10.911 2.0386 13.3237 1.49876 15.7308C0.959077 18.1372 0.824211 20.6914 1.25855 22.8305C1.68067 24.9092 2.75787 27.0456 5.02342 27.7229C7.1829 28.3684 9.12199 27.4505 10.6025 26.2051C12.0862 24.9569 13.372 23.178 14.4069 21.4583C15.2187 20.1093 15.9126 18.7352 16.4566 17.5626C17.0008 18.7352 17.6947 20.1093 18.5065 21.4583C19.5415 23.178 20.8271 24.9569 22.311 26.2051C23.7914 27.4505 25.7305 28.3684 27.89 27.7229C30.1555 27.0456 31.2327 24.9092 31.6549 22.8305C32.0892 20.6914 31.9543 18.1372 31.4147 15.7308C30.8748 13.3237 29.8955 10.911 28.5067 9.09166C27.1262 7.28295 25.1508 5.84199 22.6701 6.01394C19.9733 6.20089 18.05 8.29784 16.9356 9.88359C16.7642 10.1276 16.6044 10.3701 16.4566 10.6062C16.309 10.3701 16.1493 10.1276 15.9778 9.88359C14.8634 8.29784 12.9401 6.20089 10.2432 6.01394ZM14.6766 13.8293C14.2376 14.9418 13.1689 17.482 11.7413 19.8541C10.7743 21.4608 9.69783 22.9006 8.59975 23.8243C7.49842 24.7507 6.63594 24.9577 5.9145 24.7421C5.29916 24.5581 4.64425 23.8699 4.30744 22.2114C3.98288 20.613 4.06227 18.5172 4.53448 16.4116C5.00652 14.3068 5.83679 12.3454 6.87957 10.9794C7.93042 9.60272 9.00861 9.04695 10.0281 9.1176C11.22 9.20023 12.4078 10.2144 13.4323 11.6724C14.0041 12.486 14.4313 13.3083 14.6766 13.8293ZM18.2368 13.8293C18.6758 14.9418 19.7446 17.482 21.1721 19.8541C22.1391 21.4608 23.2155 22.9006 24.3136 23.8243C25.4151 24.7507 26.2775 24.9577 26.9989 24.7421C27.6143 24.5581 28.2692 23.8699 28.606 22.2114C28.9305 20.613 28.8511 18.5172 28.3789 16.4116C27.9069 14.3068 27.0766 12.3454 26.0339 10.9794C24.9829 9.60272 23.9048 9.04695 22.8853 9.1176C21.6934 9.20023 20.5056 10.2144 19.4811 11.6724C18.9093 12.486 18.4821 13.3083 18.2368 13.8293Z" fill="white"/>
</g>
<path d="M58.7729 8.248V25H55.4129V14.104L50.9249 25H48.3809L43.8689 14.104V25H40.5089V8.248H44.3249L49.6529 20.704L54.9809 8.248H58.7729ZM74.4548 18.064C74.4548 18.544 74.4228 18.976 74.3588 19.36H64.6388C64.7188 20.32 65.0548 21.072 65.6468 21.616C66.2388 22.16 66.9668 22.432 67.8308 22.432C69.0788 22.432 69.9668 21.896 70.4948 20.824H74.1188C73.7348 22.104 72.9988 23.16 71.9108 23.992C70.8228 24.808 69.4868 25.216 67.9028 25.216C66.6228 25.216 65.4708 24.936 64.4468 24.376C63.4388 23.8 62.6468 22.992 62.0708 21.952C61.5108 20.912 61.2308 19.712 61.2308 18.352C61.2308 16.976 61.5108 15.768 62.0708 14.728C62.6308 13.688 63.4148 12.888 64.4228 12.328C65.4308 11.768 66.5908 11.488 67.9028 11.488C69.1668 11.488 70.2948 11.76 71.2868 12.304C72.2948 12.848 73.0708 13.624 73.6148 14.632C74.1748 15.624 74.4548 16.768 74.4548 18.064ZM70.9748 17.104C70.9588 16.24 70.6468 15.552 70.0388 15.04C69.4308 14.512 68.6868 14.248 67.8068 14.248C66.9748 14.248 66.2708 14.504 65.6948 15.016C65.1348 15.512 64.7908 16.208 64.6628 17.104H70.9748ZM80.8193 14.464V20.896C80.8193 21.344 80.9233 21.672 81.1313 21.88C81.3553 22.072 81.7233 22.168 82.2353 22.168H83.7953V25H81.6833C78.8513 25 77.4353 23.624 77.4353 20.872V14.464H75.8513V11.704H77.4353V8.416H80.8193V11.704H83.7953V14.464H80.8193ZM85.348 18.304C85.348 16.96 85.612 15.768 86.14 14.728C86.684 13.688 87.412 12.888 88.324 12.328C89.252 11.768 90.284 11.488 91.42 11.488C92.412 11.488 93.276 11.688 94.012 12.088C94.764 12.488 95.364 12.992 95.812 13.6V11.704H99.196V25H95.812V23.056C95.38 23.68 94.78 24.2 94.012 24.616C93.26 25.016 92.388 25.216 91.396 25.216C90.276 25.216 89.252 24.928 88.324 24.352C87.412 23.776 86.684 22.968 86.14 21.928C85.612 20.872 85.348 19.664 85.348 18.304ZM95.812 18.352C95.812 17.536 95.652 16.84 95.332 16.264C95.012 15.672 94.58 15.224 94.036 14.92C93.492 14.6 92.908 14.44 92.284 14.44C91.66 14.44 91.084 14.592 90.556 14.896C90.028 15.2 89.596 15.648 89.26 16.24C88.94 16.816 88.78 17.504 88.78 18.304C88.78 19.104 88.94 19.808 89.26 20.416C89.596 21.008 90.028 21.464 90.556 21.784C91.1 22.104 91.676 22.264 92.284 22.264C92.908 22.264 93.492 22.112 94.036 21.808C94.58 21.488 95.012 21.04 95.332 20.464C95.652 19.872 95.812 19.168 95.812 18.352Z" fill="white"/>
<defs>
<clipPath id="clip0_396_459">
<rect width="32" height="32" fill="white" transform="translate(0.83728 1)"/>
</clipPath>
</defs>
</svg>
