<svg width="61" height="26" viewBox="0 0 61 26" fill="none" xmlns="http://www.w3.org/2000/svg">
<path fill-rule="evenodd" clip-rule="evenodd" d="M33.3259 3.98082L29.1379 4.86584V1.48667L33.3259 0.617737V3.98082ZM42.0239 5.8635C40.397 5.8635 39.3339 6.61979 38.7541 7.1508L38.5447 6.12096H34.8722V25.3822L39.044 24.5133L39.0601 19.8307C39.6561 20.2652 40.542 20.8767 42.0077 20.8767C44.9876 20.8767 47.7098 18.4952 47.7098 13.2655C47.6775 8.47029 44.9393 5.8635 42.0239 5.8635ZM41.0091 17.24C40.0265 17.24 39.4467 16.886 39.044 16.4677L39.0279 10.3369C39.4628 9.85414 40.0588 9.53231 41.0091 9.53231C42.5232 9.53231 43.5702 11.2219 43.5702 13.3781C43.5863 15.5826 42.5554 17.24 41.0091 17.24ZM60.8373 13.4264C60.8373 9.19439 58.7755 5.8635 54.8131 5.8635C50.8507 5.8635 48.4507 9.19439 48.4507 13.3942C48.4507 18.3664 51.2856 20.8767 55.3447 20.8767C57.3259 20.8767 58.8239 20.4261 59.9675 19.7986V16.4998C58.84 17.063 57.5353 17.401 55.8923 17.401C54.2816 17.401 52.848 16.8378 52.6547 14.8907H60.8051C60.8051 14.7942 60.8051 14.585 60.8212 14.3597C60.8212 14.0379 60.8373 13.6517 60.8373 13.4264ZM52.6064 11.8495C52.6064 9.98287 53.75 9.21049 54.8131 9.21049C55.8279 9.21049 56.9071 9.98287 56.9071 11.8495H52.6064ZM33.3259 6.13705H29.1379V20.6031H33.3259V6.13705ZM24.3863 6.13705L24.6601 7.35999C25.6426 5.57385 27.5916 5.94395 28.1232 6.13705V9.93459C27.6077 9.75759 25.9326 9.51622 24.95 10.7874V20.587H20.7782V6.13705H24.3863ZM16.3165 2.54869L12.2574 3.40153L12.2413 16.6447C12.2413 19.0905 14.0937 20.8928 16.5581 20.8928C17.9272 20.8928 18.9259 20.6514 19.4735 20.3457V16.9987C18.942 17.2079 16.3004 17.9802 16.3004 15.5344V9.66104H19.4735V6.13705H16.3004L16.3165 2.54869ZM6.47486 9.43576C5.58896 9.43576 5.05741 9.67713 5.05741 10.3208C5.05741 11.0288 5.97554 11.3345 7.11916 11.7207C8.97151 12.3483 11.4198 13.1689 11.4359 16.2263C11.4359 19.1871 9.05205 20.8928 5.58896 20.8928C4.1554 20.8928 2.59298 20.6192 1.04668 19.9434V16.0171C2.44802 16.7734 4.21983 17.3366 5.58896 17.3366C6.52319 17.3366 7.18359 17.0952 7.18359 16.3228C7.18359 15.5505 6.18493 15.1804 4.99298 14.762C3.14064 14.1183 0.83728 13.2816 0.83728 10.53C0.83728 7.60136 3.09231 5.84741 6.47486 5.84741C7.8601 5.84741 9.22923 6.05659 10.6145 6.6037V10.4817C9.34198 9.82195 7.73124 9.43576 6.47486 9.43576Z" fill="white"/>
</svg>
