<svg width="58" height="38" viewBox="0 0 58 38" fill="none" xmlns="http://www.w3.org/2000/svg">
<g clip-path="url(#clip0_396_468)">
<path d="M4.02215 23.0696C4.25344 23.6833 4.57365 24.2082 4.98285 24.644C5.39205 25.0799 5.87682 25.4134 6.43718 25.6447C6.99759 25.876 7.6069 25.9916 8.26516 25.9916C8.90564 25.9916 9.50603 25.8715 10.0664 25.6313C10.6269 25.3911 11.1161 25.0531 11.5341 24.6173C11.9522 24.1814 12.2769 23.6611 12.5082 23.0562C12.7395 22.4513 12.8551 21.7754 12.8551 21.0281V9.5H15.657V28.1798H12.8818V26.4452C12.2591 27.1034 11.5252 27.6105 10.6802 27.9663C9.8351 28.3221 8.92342 28.5 7.94495 28.5C6.94865 28.5 6.01913 28.3265 5.15627 27.9796C4.29348 27.6327 3.54623 27.1391 2.91473 26.4986C2.28322 25.8581 1.78504 25.0888 1.42036 24.1903C1.05563 23.2919 0.873291 22.2913 0.873291 21.1882V9.5H3.67525V21.0281C3.67525 21.7754 3.79087 22.4558 4.02215 23.0696Z" fill="white"/>
<path d="M20.4868 9.5V16.3048C21.1095 15.6821 21.83 15.1885 22.6484 14.8237C23.4667 14.459 24.3563 14.2767 25.3169 14.2767C26.3132 14.2767 27.2471 14.4634 28.1189 14.837C28.9906 15.2106 29.7466 15.7177 30.3871 16.3581C31.0276 16.9986 31.5346 17.7547 31.9082 18.6264C32.2818 19.4982 32.4686 20.4232 32.4686 21.4017C32.4686 22.3801 32.2818 23.3008 31.9082 24.1636C31.5346 25.0264 31.0276 25.7781 30.3871 26.4185C29.7466 27.059 28.9906 27.566 28.1189 27.9396C27.2471 28.3132 26.3131 28.4999 25.3169 28.4999C24.3562 28.4999 23.4623 28.3176 22.635 27.9529C21.8078 27.5882 21.0828 27.0945 20.4602 26.4718V28.1797H17.7916V9.5H20.4868ZM20.7937 23.243C21.0339 23.8123 21.3675 24.3104 21.7944 24.7374C22.2214 25.1644 22.7195 25.5024 23.2888 25.7515C23.8581 26.0005 24.4719 26.1251 25.1301 26.1251C25.7706 26.1251 26.3754 26.0005 26.9447 25.7515C27.514 25.5024 28.0076 25.1644 28.4258 24.7374C28.8438 24.3105 29.1774 23.8123 29.4265 23.243C29.6755 22.6737 29.8001 22.06 29.8001 21.4017C29.8001 20.7435 29.6755 20.1252 29.4265 19.547C29.1774 18.9689 28.8438 18.4663 28.4258 18.0393C28.0077 17.6124 27.514 17.2788 26.9447 17.0387C26.3754 16.7985 25.7706 16.6784 25.1301 16.6784C24.4897 16.6784 23.8848 16.7985 23.3156 17.0387C22.7463 17.2789 22.2482 17.6124 21.8211 18.0393C21.3942 18.4663 21.0562 18.9689 20.8071 19.547C20.5581 20.1252 20.4335 20.7435 20.4335 21.4017C20.4335 22.06 20.5536 22.6737 20.7937 23.243Z" fill="white"/>
<path d="M33.9893 18.6531C34.3451 17.7991 34.8344 17.0475 35.457 16.3982C36.0796 15.7489 36.8179 15.2374 37.6719 14.8638C38.5258 14.4902 39.4509 14.3034 40.4472 14.3034C41.4256 14.3034 42.3329 14.4813 43.1691 14.8371C44.0052 15.1929 44.7257 15.6866 45.3306 16.3182C45.9355 16.9497 46.407 17.6969 46.7449 18.5597C47.0829 19.4226 47.2519 20.361 47.2519 21.3751V22.2557H36.1775C36.2665 22.8072 36.4444 23.3187 36.7112 23.7901C36.9781 24.2615 37.3116 24.6707 37.7119 25.0176C38.1122 25.3646 38.5659 25.6359 39.0729 25.8315C39.5799 26.0272 40.118 26.1251 40.6874 26.1251C42.3063 26.1251 43.6139 25.4579 44.6101 24.1236L46.5582 25.5646C45.8821 26.4719 45.046 27.1836 44.0498 27.6994C43.0535 28.2153 41.9327 28.4733 40.6874 28.4733C39.6733 28.4733 38.726 28.2954 37.8454 27.9396C36.9648 27.5838 36.1998 27.0857 35.5505 26.4452C34.9012 25.8047 34.3897 25.0531 34.0161 24.1903C33.6425 23.3275 33.4557 22.389 33.4557 21.375C33.4556 20.4143 33.6335 19.507 33.9893 18.6531ZM37.7386 17.599C36.9825 18.2305 36.48 19.0711 36.2309 20.1208H44.5301C44.2988 19.0711 43.8051 18.2305 43.049 17.599C42.2929 16.9675 41.4079 16.6517 40.3938 16.6517C39.3798 16.6517 38.4947 16.9675 37.7386 17.599Z" fill="white"/>
<path d="M52.2954 17.9059C51.7261 18.5285 51.4415 19.3736 51.4415 20.441V28.1799H48.7462V14.5703H51.4147V16.2514C51.7528 15.6999 52.1931 15.2641 52.7357 14.9438C53.2783 14.6236 53.9232 14.4634 54.6704 14.4634H55.6044V16.9719H54.4836C53.5941 16.9719 52.8647 17.2832 52.2954 17.9059Z" fill="white"/>
</g>
<defs>
<clipPath id="clip0_396_468">
<rect width="57" height="38" fill="white" transform="translate(0.83728)"/>
</clipPath>
</defs>
</svg>
